<mxfile host="app.diagrams.net" agent="Mozilla/5.0 (Macintosh; Intel Mac OS X 10_15_7) AppleWebKit/537.36 (KHTML, like Gecko) Chrome/131.0.0.0 Safari/537.36" version="26.0.4">
  <diagram name="Page-1" id="oXkzEY-oQWs-iURcSAVP">
    <mxGraphModel dx="1466" dy="2020" grid="1" gridSize="10" guides="1" tooltips="1" connect="1" arrows="1" fold="1" page="1" pageScale="1" pageWidth="827" pageHeight="1169" math="0" shadow="0">
      <root>
        <mxCell id="0" />
        <mxCell id="1" parent="0" />
        <mxCell id="1Lq24JRegQzs3EulA0CL-32" value="" style="rounded=0;whiteSpace=wrap;html=1;labelPosition=center;verticalLabelPosition=top;align=center;verticalAlign=bottom;" parent="1" vertex="1">
          <mxGeometry x="1100" y="-520" width="260" height="510" as="geometry" />
        </mxCell>
        <mxCell id="acBKIw57EiYT2RUyk9zV-19" style="edgeStyle=orthogonalEdgeStyle;rounded=0;orthogonalLoop=1;jettySize=auto;html=1;entryX=0.5;entryY=0;entryDx=0;entryDy=0;" parent="1" source="1Lq24JRegQzs3EulA0CL-18" target="acBKIw57EiYT2RUyk9zV-18" edge="1">
          <mxGeometry relative="1" as="geometry" />
        </mxCell>
        <mxCell id="acBKIw57EiYT2RUyk9zV-22" value="HTTP" style="edgeLabel;html=1;align=center;verticalAlign=middle;resizable=0;points=[];" parent="acBKIw57EiYT2RUyk9zV-19" vertex="1" connectable="0">
          <mxGeometry x="-0.2252" y="5" relative="1" as="geometry">
            <mxPoint as="offset" />
          </mxGeometry>
        </mxCell>
        <mxCell id="1Lq24JRegQzs3EulA0CL-18" value="&lt;b&gt;&lt;font style=&quot;font-size: 18px;&quot;&gt;Backend&lt;/font&gt;&lt;/b&gt;" style="rounded=1;whiteSpace=wrap;html=1;align=center;labelPosition=center;verticalLabelPosition=top;verticalAlign=bottom;" parent="1" vertex="1">
          <mxGeometry x="140" y="20" width="840" height="360" as="geometry" />
        </mxCell>
        <mxCell id="acBKIw57EiYT2RUyk9zV-20" style="edgeStyle=orthogonalEdgeStyle;rounded=0;orthogonalLoop=1;jettySize=auto;html=1;entryX=0.5;entryY=1;entryDx=0;entryDy=0;" parent="1" source="1Lq24JRegQzs3EulA0CL-28" target="acBKIw57EiYT2RUyk9zV-18" edge="1">
          <mxGeometry relative="1" as="geometry" />
        </mxCell>
        <mxCell id="acBKIw57EiYT2RUyk9zV-21" value="HTTP" style="edgeLabel;html=1;align=center;verticalAlign=middle;resizable=0;points=[];" parent="acBKIw57EiYT2RUyk9zV-20" vertex="1" connectable="0">
          <mxGeometry x="0.018" y="2" relative="1" as="geometry">
            <mxPoint as="offset" />
          </mxGeometry>
        </mxCell>
        <mxCell id="1Lq24JRegQzs3EulA0CL-28" value="&lt;b&gt;&lt;font style=&quot;font-size: 18px;&quot;&gt;Silo Server&lt;/font&gt;&lt;/b&gt;" style="rounded=1;whiteSpace=wrap;html=1;labelPosition=center;verticalLabelPosition=top;align=center;verticalAlign=bottom;" parent="1" vertex="1">
          <mxGeometry x="140" y="480" width="840" height="250" as="geometry" />
        </mxCell>
        <mxCell id="1Lq24JRegQzs3EulA0CL-1" value="&amp;lt;&amp;lt;Actor&amp;gt;&amp;gt;" style="rounded=1;whiteSpace=wrap;html=1;fillColor=#fff2cc;strokeColor=#d6b656;" parent="1" vertex="1">
          <mxGeometry x="1170" y="-440" width="120" height="60" as="geometry" />
        </mxCell>
        <mxCell id="1Lq24JRegQzs3EulA0CL-4" value="Player" style="rounded=1;whiteSpace=wrap;html=1;fillColor=#fff2cc;strokeColor=#d6b656;" parent="1" vertex="1">
          <mxGeometry x="250" y="510" width="120" height="60" as="geometry" />
        </mxCell>
        <mxCell id="1Lq24JRegQzs3EulA0CL-6" value="MatchMaker" style="rounded=1;whiteSpace=wrap;html=1;fillColor=#fff2cc;strokeColor=#d6b656;" parent="1" vertex="1">
          <mxGeometry x="475" y="620" width="120" height="60" as="geometry" />
        </mxCell>
        <mxCell id="1Lq24JRegQzs3EulA0CL-7" value="CardDealer" style="rounded=1;whiteSpace=wrap;html=1;fillColor=#fff2cc;strokeColor=#d6b656;" parent="1" vertex="1">
          <mxGeometry x="250" y="620" width="120" height="60" as="geometry" />
        </mxCell>
        <mxCell id="1Lq24JRegQzs3EulA0CL-8" value="Match" style="rounded=1;whiteSpace=wrap;html=1;fillColor=#fff2cc;strokeColor=#d6b656;" parent="1" vertex="1">
          <mxGeometry x="475" y="510" width="120" height="60" as="geometry" />
        </mxCell>
        <mxCell id="1Lq24JRegQzs3EulA0CL-12" value="" style="endArrow=classic;html=1;rounded=0;" parent="1" edge="1">
          <mxGeometry width="50" height="50" relative="1" as="geometry">
            <mxPoint x="1155" y="-30" as="sourcePoint" />
            <mxPoint x="1305" y="-30" as="targetPoint" />
          </mxGeometry>
        </mxCell>
        <mxCell id="1Lq24JRegQzs3EulA0CL-13" value="Protocol" style="edgeLabel;html=1;align=center;verticalAlign=middle;resizable=0;points=[];" parent="1Lq24JRegQzs3EulA0CL-12" vertex="1" connectable="0">
          <mxGeometry x="-0.0267" y="-1" relative="1" as="geometry">
            <mxPoint as="offset" />
          </mxGeometry>
        </mxCell>
        <mxCell id="1Lq24JRegQzs3EulA0CL-21" style="edgeStyle=orthogonalEdgeStyle;rounded=0;orthogonalLoop=1;jettySize=auto;html=1;entryX=0.5;entryY=0;entryDx=0;entryDy=0;" parent="1" source="1Lq24JRegQzs3EulA0CL-14" target="1Lq24JRegQzs3EulA0CL-19" edge="1">
          <mxGeometry relative="1" as="geometry">
            <Array as="points">
              <mxPoint x="380" y="30" />
              <mxPoint x="380" y="30" />
            </Array>
          </mxGeometry>
        </mxCell>
        <mxCell id="1Lq24JRegQzs3EulA0CL-22" value="HTTP" style="edgeLabel;html=1;align=center;verticalAlign=middle;resizable=0;points=[];" parent="1Lq24JRegQzs3EulA0CL-21" vertex="1" connectable="0">
          <mxGeometry x="-0.2308" y="1" relative="1" as="geometry">
            <mxPoint x="80" y="-26" as="offset" />
          </mxGeometry>
        </mxCell>
        <mxCell id="1Lq24JRegQzs3EulA0CL-14" value="&lt;b&gt;UI&lt;/b&gt;" style="rounded=1;whiteSpace=wrap;html=1;" parent="1" vertex="1">
          <mxGeometry x="320" y="-130" width="120" height="60" as="geometry" />
        </mxCell>
        <mxCell id="1Lq24JRegQzs3EulA0CL-23" style="edgeStyle=orthogonalEdgeStyle;rounded=0;orthogonalLoop=1;jettySize=auto;html=1;entryX=0.25;entryY=0;entryDx=0;entryDy=0;" parent="1" source="1Lq24JRegQzs3EulA0CL-15" target="1Lq24JRegQzs3EulA0CL-14" edge="1">
          <mxGeometry relative="1" as="geometry" />
        </mxCell>
        <mxCell id="1Lq24JRegQzs3EulA0CL-15" value="User 1" style="shape=umlActor;verticalLabelPosition=bottom;verticalAlign=top;html=1;outlineConnect=0;" parent="1" vertex="1">
          <mxGeometry x="310" y="-280" width="30" height="60" as="geometry" />
        </mxCell>
        <mxCell id="1Lq24JRegQzs3EulA0CL-24" style="edgeStyle=orthogonalEdgeStyle;rounded=0;orthogonalLoop=1;jettySize=auto;html=1;entryX=0.75;entryY=0;entryDx=0;entryDy=0;" parent="1" source="1Lq24JRegQzs3EulA0CL-16" target="1Lq24JRegQzs3EulA0CL-14" edge="1">
          <mxGeometry relative="1" as="geometry" />
        </mxCell>
        <mxCell id="1Lq24JRegQzs3EulA0CL-16" value="User 2" style="shape=umlActor;verticalLabelPosition=bottom;verticalAlign=top;html=1;outlineConnect=0;" parent="1" vertex="1">
          <mxGeometry x="420" y="-280" width="30" height="60" as="geometry" />
        </mxCell>
        <mxCell id="1Lq24JRegQzs3EulA0CL-34" style="edgeStyle=orthogonalEdgeStyle;rounded=0;orthogonalLoop=1;jettySize=auto;html=1;entryX=0.5;entryY=0;entryDx=0;entryDy=0;" parent="1" source="1Lq24JRegQzs3EulA0CL-19" target="1Lq24JRegQzs3EulA0CL-31" edge="1">
          <mxGeometry relative="1" as="geometry" />
        </mxCell>
        <mxCell id="1Lq24JRegQzs3EulA0CL-19" value="CommandController" style="rounded=1;whiteSpace=wrap;html=1;fillColor=#d5e8d4;strokeColor=#82b366;" parent="1" vertex="1">
          <mxGeometry x="320" y="60" width="120" height="60" as="geometry" />
        </mxCell>
        <mxCell id="1Lq24JRegQzs3EulA0CL-20" value="&amp;lt;&amp;lt;API Controller&amp;gt;&amp;gt;" style="rounded=1;whiteSpace=wrap;html=1;fillColor=#d5e8d4;strokeColor=#82b366;" parent="1" vertex="1">
          <mxGeometry x="1170" y="-360" width="120" height="60" as="geometry" />
        </mxCell>
        <mxCell id="1Lq24JRegQzs3EulA0CL-36" style="edgeStyle=orthogonalEdgeStyle;rounded=0;orthogonalLoop=1;jettySize=auto;html=1;entryX=0.5;entryY=0;entryDx=0;entryDy=0;" parent="1" target="1Lq24JRegQzs3EulA0CL-35" edge="1">
          <mxGeometry relative="1" as="geometry">
            <mxPoint x="535" y="120" as="sourcePoint" />
          </mxGeometry>
        </mxCell>
        <mxCell id="1Lq24JRegQzs3EulA0CL-27" value="Redis" style="shape=cylinder3;whiteSpace=wrap;html=1;boundedLbl=1;backgroundOutline=1;size=15;labelPosition=center;verticalLabelPosition=bottom;align=center;verticalAlign=top;" parent="1" vertex="1">
          <mxGeometry x="460" y="800" width="60" height="80" as="geometry" />
        </mxCell>
        <mxCell id="1Lq24JRegQzs3EulA0CL-29" style="edgeStyle=orthogonalEdgeStyle;rounded=0;orthogonalLoop=1;jettySize=auto;html=1;entryX=0.5;entryY=0;entryDx=0;entryDy=0;entryPerimeter=0;" parent="1" source="1Lq24JRegQzs3EulA0CL-28" target="1Lq24JRegQzs3EulA0CL-27" edge="1">
          <mxGeometry relative="1" as="geometry" />
        </mxCell>
        <mxCell id="1Lq24JRegQzs3EulA0CL-30" value="Read/Write" style="edgeLabel;html=1;align=center;verticalAlign=middle;resizable=0;points=[];" parent="1Lq24JRegQzs3EulA0CL-29" vertex="1" connectable="0">
          <mxGeometry x="0.1333" relative="1" as="geometry">
            <mxPoint as="offset" />
          </mxGeometry>
        </mxCell>
        <mxCell id="1Lq24JRegQzs3EulA0CL-52" style="edgeStyle=orthogonalEdgeStyle;rounded=0;orthogonalLoop=1;jettySize=auto;html=1;entryX=0.5;entryY=0;entryDx=0;entryDy=0;" parent="1" source="1Lq24JRegQzs3EulA0CL-31" target="1Lq24JRegQzs3EulA0CL-51" edge="1">
          <mxGeometry relative="1" as="geometry" />
        </mxCell>
        <mxCell id="1Lq24JRegQzs3EulA0CL-31" value="CommandHandler" style="rounded=1;whiteSpace=wrap;html=1;fillColor=#ffe6cc;strokeColor=#d79b00;" parent="1" vertex="1">
          <mxGeometry x="320" y="140" width="120" height="60" as="geometry" />
        </mxCell>
        <mxCell id="1Lq24JRegQzs3EulA0CL-33" value="&amp;lt;&amp;lt;Service&amp;gt;&amp;gt;" style="rounded=1;whiteSpace=wrap;html=1;fillColor=#ffe6cc;strokeColor=#d79b00;" parent="1" vertex="1">
          <mxGeometry x="1170" y="-200" width="120" height="60" as="geometry" />
        </mxCell>
        <mxCell id="1Lq24JRegQzs3EulA0CL-54" style="edgeStyle=orthogonalEdgeStyle;rounded=0;orthogonalLoop=1;jettySize=auto;html=1;entryX=0.5;entryY=0;entryDx=0;entryDy=0;" parent="1" target="1Lq24JRegQzs3EulA0CL-53" edge="1">
          <mxGeometry relative="1" as="geometry">
            <mxPoint x="535" y="200" as="sourcePoint" />
          </mxGeometry>
        </mxCell>
        <mxCell id="1Lq24JRegQzs3EulA0CL-51" value="Command Action Handlers" style="rounded=1;whiteSpace=wrap;html=1;fillColor=#ffe6cc;strokeColor=#d79b00;" parent="1" vertex="1">
          <mxGeometry x="235" y="250" width="290" height="100" as="geometry" />
        </mxCell>
        <mxCell id="1Lq24JRegQzs3EulA0CL-61" style="edgeStyle=orthogonalEdgeStyle;rounded=0;orthogonalLoop=1;jettySize=auto;html=1;entryX=1;entryY=0.5;entryDx=0;entryDy=0;" parent="1" source="1Lq24JRegQzs3EulA0CL-57" target="1Lq24JRegQzs3EulA0CL-14" edge="1">
          <mxGeometry relative="1" as="geometry">
            <Array as="points">
              <mxPoint x="830" y="-100" />
            </Array>
          </mxGeometry>
        </mxCell>
        <mxCell id="1Lq24JRegQzs3EulA0CL-68" value="WSS" style="edgeLabel;html=1;align=center;verticalAlign=middle;resizable=0;points=[];" parent="1Lq24JRegQzs3EulA0CL-61" vertex="1" connectable="0">
          <mxGeometry x="-0.5337" y="2" relative="1" as="geometry">
            <mxPoint as="offset" />
          </mxGeometry>
        </mxCell>
        <mxCell id="1Lq24JRegQzs3EulA0CL-57" value="ProfileHub" style="rounded=1;whiteSpace=wrap;html=1;fillColor=#dae8fc;strokeColor=#6c8ebf;" parent="1" vertex="1">
          <mxGeometry x="770" y="60" width="120" height="60" as="geometry" />
        </mxCell>
        <mxCell id="1Lq24JRegQzs3EulA0CL-62" style="edgeStyle=orthogonalEdgeStyle;rounded=0;orthogonalLoop=1;jettySize=auto;html=1;" parent="1" source="1Lq24JRegQzs3EulA0CL-60" target="1Lq24JRegQzs3EulA0CL-57" edge="1">
          <mxGeometry relative="1" as="geometry" />
        </mxCell>
        <mxCell id="1Lq24JRegQzs3EulA0CL-60" value="ProfileService" style="rounded=1;whiteSpace=wrap;html=1;fillColor=#ffe6cc;strokeColor=#d79b00;" parent="1" vertex="1">
          <mxGeometry x="770" y="140" width="120" height="60" as="geometry" />
        </mxCell>
        <mxCell id="acBKIw57EiYT2RUyk9zV-4" style="edgeStyle=orthogonalEdgeStyle;rounded=0;orthogonalLoop=1;jettySize=auto;html=1;" parent="1" source="1Lq24JRegQzs3EulA0CL-51" edge="1">
          <mxGeometry relative="1" as="geometry">
            <mxPoint x="380" y="479" as="targetPoint" />
          </mxGeometry>
        </mxCell>
        <mxCell id="acBKIw57EiYT2RUyk9zV-12" value="Method Call" style="edgeLabel;html=1;align=center;verticalAlign=middle;resizable=0;points=[];" parent="acBKIw57EiYT2RUyk9zV-4" vertex="1" connectable="0">
          <mxGeometry x="0.0877" relative="1" as="geometry">
            <mxPoint y="1" as="offset" />
          </mxGeometry>
        </mxCell>
        <mxCell id="acBKIw57EiYT2RUyk9zV-6" value="&amp;lt;&amp;lt;Socket Hub&amp;gt;&amp;gt;" style="rounded=1;whiteSpace=wrap;html=1;fillColor=#dae8fc;strokeColor=#6c8ebf;" parent="1" vertex="1">
          <mxGeometry x="1170" y="-280" width="120" height="60" as="geometry" />
        </mxCell>
        <mxCell id="acBKIw57EiYT2RUyk9zV-14" style="edgeStyle=orthogonalEdgeStyle;rounded=0;orthogonalLoop=1;jettySize=auto;html=1;" parent="1" source="acBKIw57EiYT2RUyk9zV-7" target="1Lq24JRegQzs3EulA0CL-60" edge="1">
          <mxGeometry relative="1" as="geometry" />
        </mxCell>
        <mxCell id="acBKIw57EiYT2RUyk9zV-7" value="NotifyPlayersController" style="rounded=1;whiteSpace=wrap;html=1;fillColor=#d5e8d4;strokeColor=#82b366;" parent="1" vertex="1">
          <mxGeometry x="760" y="260" width="140" height="60" as="geometry" />
        </mxCell>
        <mxCell id="acBKIw57EiYT2RUyk9zV-10" style="edgeStyle=orthogonalEdgeStyle;rounded=0;orthogonalLoop=1;jettySize=auto;html=1;entryX=0.5;entryY=1;entryDx=0;entryDy=0;exitX=0.5;exitY=0;exitDx=0;exitDy=0;" parent="1" source="acBKIw57EiYT2RUyk9zV-15" target="acBKIw57EiYT2RUyk9zV-7" edge="1">
          <mxGeometry relative="1" as="geometry">
            <mxPoint x="830" y="510" as="sourcePoint" />
          </mxGeometry>
        </mxCell>
        <mxCell id="acBKIw57EiYT2RUyk9zV-13" value="HTTP" style="edgeLabel;html=1;align=center;verticalAlign=middle;resizable=0;points=[];" parent="acBKIw57EiYT2RUyk9zV-10" vertex="1" connectable="0">
          <mxGeometry x="-0.1509" y="1" relative="1" as="geometry">
            <mxPoint y="-1" as="offset" />
          </mxGeometry>
        </mxCell>
        <mxCell id="acBKIw57EiYT2RUyk9zV-15" value="SendGameMatchService" style="rounded=1;whiteSpace=wrap;html=1;fillColor=#ffe6cc;strokeColor=#d79b00;" parent="1" vertex="1">
          <mxGeometry x="755" y="555" width="150" height="60" as="geometry" />
        </mxCell>
        <mxCell id="acBKIw57EiYT2RUyk9zV-16" value="Legend" style="text;html=1;align=center;verticalAlign=middle;resizable=0;points=[];autosize=1;strokeColor=none;fillColor=none;fontStyle=1;fontSize=18;" parent="1" vertex="1">
          <mxGeometry x="1190" y="-510" width="80" height="40" as="geometry" />
        </mxCell>
        <mxCell id="acBKIw57EiYT2RUyk9zV-17" value="&amp;lt;&amp;lt;ExternalService&amp;gt;&amp;gt;" style="rounded=1;whiteSpace=wrap;html=1;fillColor=#f8cecc;strokeColor=#b85450;" parent="1" vertex="1">
          <mxGeometry x="1170" y="-120" width="120" height="60" as="geometry" />
        </mxCell>
        <mxCell id="acBKIw57EiYT2RUyk9zV-18" value="Jaeger" style="rounded=1;whiteSpace=wrap;html=1;fillColor=#f8cecc;strokeColor=#b85450;" parent="1" vertex="1">
          <mxGeometry x="1200" y="370" width="320" height="120" as="geometry" />
        </mxCell>
      </root>
    </mxGraphModel>
  </diagram>
</mxfile>
